<svg width="24" height="24" viewBox="0 0 24 24" fill="none" xmlns="http://www.w3.org/2000/svg">
<path d="M10.7983 20.7969V15.5056C9.7525 15.968 8.68643 16.3842 7.6001 16.7541V20.7969H10.7983Z" fill="#6B7280"/>
<path d="M2 18.2708V20.7981H5.19822V17.494C4.53819 17.6747 3.87456 17.8438 3.20413 17.9909C3.12418 18.0081 2.99425 18.0393 2.83634 18.0769C2.5329 18.1496 2.24946 18.2164 2 18.2708Z" fill="#6B7280"/>
<path d="M16.4003 20.8V12.4696C15.3629 13.1443 14.2962 13.7696 13.2002 14.3456V20.8H16.4003Z" fill="#6B7280"/>
<path d="M18.8003 10.7776V20.8H22.0004V8.64362L21.7016 8.34442C20.7725 9.20415 19.8054 10.0152 18.8003 10.7776Z" fill="#6B7280"/>
<path d="M22.8003 21.6004H1.19981C0.978895 21.6004 0.799805 21.7795 0.799805 22.0004V22.8004C0.799805 23.0213 0.978895 23.2004 1.19981 23.2004H22.8003C23.0212 23.2004 23.2003 23.0213 23.2003 22.8004V22.0004C23.2003 21.7795 23.0212 21.6004 22.8003 21.6004Z" fill="#6B7280"/>
<path d="M6.39944 11.9995C7.50704 11.9995 8.58977 11.6711 9.51071 11.0557C10.4316 10.4404 11.1494 9.5658 11.5733 8.54253C11.9971 7.51926 12.108 6.39329 11.892 5.307C11.6759 4.2207 11.1425 3.22288 10.3593 2.4397C9.57614 1.65653 8.57829 1.12318 7.49197 0.907104C6.40566 0.691027 5.27966 0.801926 4.25637 1.22578C3.23308 1.64963 2.35846 2.36739 1.74311 3.28831C1.12776 4.20922 0.799316 5.29193 0.799316 6.3995C0.800905 7.88423 1.39143 9.30769 2.44131 10.3575C3.49119 11.4074 4.91468 11.9979 6.39944 11.9995ZM6.79945 10.7995C6.79945 10.9056 6.75731 11.0073 6.68229 11.0823C6.60728 11.1574 6.50553 11.1995 6.39944 11.1995C6.29335 11.1995 6.19161 11.1574 6.11659 11.0823C6.04158 11.0073 5.99943 10.9056 5.99943 10.7995V10.3995C5.99943 10.2934 6.04158 10.1917 6.11659 10.1167C6.19161 10.0416 6.29335 9.9995 6.39944 9.9995C6.50553 9.9995 6.60728 10.0416 6.68229 10.1167C6.75731 10.1917 6.79945 10.2934 6.79945 10.3995V10.7995ZM10.3995 5.9995H10.7995C10.9056 5.9995 11.0074 6.04165 11.0824 6.11666C11.1574 6.19167 11.1996 6.29342 11.1996 6.3995C11.1996 6.50559 11.1574 6.60733 11.0824 6.68235C11.0074 6.75736 10.9056 6.7995 10.7995 6.7995H10.3995C10.2934 6.7995 10.1917 6.75736 10.1167 6.68235C10.0417 6.60733 9.99952 6.50559 9.99952 6.3995C9.99952 6.29342 10.0417 6.19167 10.1167 6.11666C10.1917 6.04165 10.2934 5.9995 10.3995 5.9995ZM8.9451 3.2887L9.22791 3.0059C9.30335 2.93304 9.40439 2.89272 9.50927 2.89363C9.61416 2.89454 9.71448 2.93661 9.78865 3.01077C9.86281 3.08494 9.90488 3.18526 9.90579 3.29014C9.9067 3.39502 9.86639 3.49606 9.79352 3.5715L9.51071 3.8543C9.47381 3.89251 9.42968 3.92298 9.38087 3.94394C9.33207 3.96491 9.27958 3.97594 9.22647 3.9764C9.17336 3.97686 9.12068 3.96674 9.07152 3.94663C9.02236 3.92652 8.9777 3.89682 8.94014 3.85926C8.90258 3.8217 8.87288 3.77704 8.85277 3.72788C8.83266 3.67873 8.82254 3.62605 8.823 3.57294C8.82346 3.51983 8.83449 3.46734 8.85546 3.41854C8.87642 3.36974 8.9069 3.3256 8.9451 3.2887ZM8.9451 8.9455C9.02011 8.87051 9.12184 8.82839 9.22791 8.82839C9.33398 8.82839 9.4357 8.87051 9.51071 8.9455L9.79352 9.2283C9.83173 9.2652 9.8622 9.30934 9.88316 9.35814C9.90413 9.40694 9.91516 9.45943 9.91562 9.51254C9.91608 9.56565 9.90596 9.61833 9.88585 9.66748C9.86574 9.71664 9.83604 9.7613 9.79848 9.79886C9.76092 9.83642 9.71626 9.86612 9.6671 9.88623C9.61794 9.90634 9.56527 9.91646 9.51215 9.916C9.45904 9.91554 9.40655 9.90451 9.35775 9.88354C9.30895 9.86258 9.26481 9.83211 9.22791 9.7939L8.9451 9.5111C8.87011 9.43609 8.82798 9.33437 8.82798 9.2283C8.82798 9.12224 8.87011 9.02051 8.9451 8.9455ZM5.99943 1.9995C5.99943 1.89342 6.04158 1.79167 6.11659 1.71666C6.19161 1.64164 6.29335 1.5995 6.39944 1.5995C6.50553 1.5995 6.60728 1.64164 6.68229 1.71666C6.75731 1.79167 6.79945 1.89342 6.79945 1.9995V2.3995C6.79945 2.50559 6.75731 2.60733 6.68229 2.68234C6.60728 2.75736 6.50553 2.7995 6.39944 2.7995C6.29335 2.7995 6.19161 2.75736 6.11659 2.68234C6.04158 2.60733 5.99943 2.50559 5.99943 2.3995V1.9995ZM5.99943 5.2731V3.9995C5.99943 3.89342 6.04158 3.79167 6.11659 3.71666C6.19161 3.64165 6.29335 3.5995 6.39944 3.5995C6.50553 3.5995 6.60728 3.64165 6.68229 3.71666C6.75731 3.79167 6.79945 3.89342 6.79945 3.9995V5.2731C6.96675 5.33286 7.1187 5.42902 7.24432 5.55464C7.36994 5.68026 7.46611 5.8322 7.52587 5.9995H7.99948C8.10557 5.9995 8.20731 6.04165 8.28233 6.11666C8.35735 6.19167 8.39949 6.29342 8.39949 6.3995C8.39949 6.50559 8.35735 6.60733 8.28233 6.68235C8.20731 6.75736 8.10557 6.7995 7.99948 6.7995H7.52587C7.45882 6.99054 7.34442 7.16145 7.19337 7.29626C7.04232 7.43107 6.85954 7.52537 6.66214 7.57034C6.46473 7.61531 6.25915 7.60949 6.0646 7.55342C5.87006 7.49734 5.69292 7.39285 5.54973 7.24971C5.40655 7.10657 5.30201 6.92946 5.24589 6.73493C5.18976 6.54041 5.18388 6.33483 5.22881 6.13742C5.27373 5.94 5.36798 5.75721 5.50275 5.60612C5.63753 5.45504 5.80841 5.3406 5.99943 5.2735V5.2731ZM3.00537 3.0059C3.08038 2.93091 3.1821 2.88879 3.28817 2.88879C3.39424 2.88879 3.49597 2.93091 3.57098 3.0059L3.85379 3.2887C3.89199 3.3256 3.92246 3.36974 3.94343 3.41854C3.96439 3.46734 3.97543 3.51983 3.97589 3.57294C3.97635 3.62605 3.96623 3.67873 3.94612 3.72788C3.926 3.77704 3.8963 3.8217 3.85874 3.85926C3.82119 3.89682 3.77652 3.92652 3.72736 3.94663C3.6782 3.96674 3.62553 3.97686 3.57242 3.9764C3.51931 3.97594 3.46682 3.96491 3.41801 3.94394C3.36921 3.92298 3.32507 3.89251 3.28817 3.8543L3.00537 3.5715C2.93038 3.49649 2.88825 3.39477 2.88825 3.2887C2.88825 3.18264 2.93038 3.08091 3.00537 3.0059ZM3.00537 9.2283L3.28817 8.9455C3.36362 8.87264 3.46466 8.83232 3.56954 8.83323C3.67442 8.83414 3.77475 8.87621 3.84891 8.95038C3.92308 9.02454 3.96515 9.12486 3.96606 9.22974C3.96697 9.33462 3.92665 9.43566 3.85379 9.5111L3.57098 9.7939C3.53408 9.83211 3.48994 9.86258 3.44114 9.88354C3.39234 9.90451 3.33985 9.91554 3.28673 9.916C3.23362 9.91646 3.18095 9.90634 3.13179 9.88623C3.08263 9.86612 3.03797 9.83642 3.00041 9.79886C2.96285 9.7613 2.93315 9.71664 2.91304 9.66748C2.89292 9.61833 2.8828 9.56565 2.88326 9.51254C2.88373 9.45943 2.89476 9.40694 2.91572 9.35814C2.93669 9.30934 2.96716 9.2652 3.00537 9.2283ZM1.99934 6.7995C1.89325 6.7995 1.79151 6.75736 1.71649 6.68235C1.64148 6.60733 1.59933 6.50559 1.59933 6.3995C1.59933 6.29342 1.64148 6.19167 1.71649 6.11666C1.79151 6.04165 1.89325 5.9995 1.99934 5.9995H2.39935C2.50544 5.9995 2.60719 6.04165 2.6822 6.11666C2.75722 6.19167 2.79936 6.29342 2.79936 6.3995C2.79936 6.50559 2.75722 6.60733 2.6822 6.68235C2.60719 6.75736 2.50544 6.7995 2.39935 6.7995H1.99934Z" fill="#6B7280"/>
<path d="M20.8663 6.37761C20.9042 6.4155 20.9342 6.46063 20.9544 6.51032C20.9745 6.56001 20.9845 6.61326 20.9837 6.66688C20.9829 6.7205 20.9713 6.77342 20.9496 6.82247C20.9279 6.87152 20.8966 6.91571 20.8575 6.95241C15.8239 11.6772 9.60517 14.9513 2.86107 16.4272L1.11343 16.8108C1.06243 16.8215 1.01405 16.8421 0.971129 16.8717C0.928205 16.9012 0.891592 16.939 0.863425 16.9828C0.824327 17.0433 0.802275 17.1132 0.799594 17.1851C0.796913 17.2571 0.813704 17.3284 0.848194 17.3916C0.882685 17.4548 0.933596 17.5075 0.995557 17.5442C1.05752 17.5809 1.12823 17.6002 1.20023 17.6C1.6889 17.525 2.17331 17.4245 2.65147 17.2988C2.81707 17.2588 2.95427 17.2268 3.03547 17.2092C9.93596 15.6987 16.2964 12.3418 21.4371 7.49721C21.5128 7.42588 21.6134 7.38685 21.7174 7.38842C21.8214 7.38999 21.9208 7.43203 21.9943 7.50561L22.5019 7.96681C22.5419 8.00316 22.5912 8.02758 22.6444 8.03731C22.6975 8.04705 22.7523 8.0417 22.8026 8.02188C22.8528 8.00206 22.8965 7.96856 22.9287 7.92518C22.9609 7.88179 22.9803 7.83026 22.9847 7.77641L23.1675 5.54482C23.1709 5.50298 23.1652 5.46092 23.1507 5.42153C23.1362 5.38214 23.1133 5.34637 23.0837 5.31669C23.054 5.28702 23.0182 5.26415 22.9788 5.24966C22.9394 5.23518 22.8974 5.22943 22.8555 5.23281L20.6239 5.41521C20.5701 5.4196 20.5187 5.43893 20.4753 5.47102C20.4319 5.50311 20.3984 5.54669 20.3785 5.59682C20.3587 5.64696 20.3532 5.70166 20.3627 5.75474C20.3723 5.80782 20.3965 5.85717 20.4327 5.89721L20.8663 6.37761Z" fill="#6B7280"/>
<path d="M6.39978 6.79996C6.62057 6.79996 6.79956 6.62098 6.79956 6.40019C6.79956 6.17941 6.62057 6.00043 6.39978 6.00043C6.17899 6.00043 6 6.17941 6 6.40019C6 6.62098 6.17899 6.79996 6.39978 6.79996Z" fill="#6B7280"/>
</svg>
