<svg width="24" height="24" viewBox="0 0 24 24" fill="none" xmlns="http://www.w3.org/2000/svg">
<path d="M3.42326 5.77331C3.55773 5.25361 3.96478 4.84658 4.48812 4.70848C3.96841 4.57401 3.56137 4.16698 3.42326 3.64365C3.28879 4.16334 2.88174 4.57038 2.3584 4.70848C2.87811 4.84658 3.28516 5.25361 3.42326 5.77331Z" fill="#6B7280"/>
<path d="M17.6873 6.40001C17.6873 3.25819 15.1418 0.712738 11.9999 0.712738C8.85801 0.712738 6.3125 3.25819 6.3125 6.40001C6.3125 9.54183 17.6873 9.54183 17.6873 6.40001ZM12.8072 2.23274C12.8617 2.04001 13.0617 1.92728 13.2581 1.98183C14.76 2.40728 15.9673 3.60365 16.4109 5.09819C16.4691 5.29092 16.3564 5.49456 16.1673 5.5491C16.1345 5.56001 16.0982 5.56365 16.0654 5.56365C15.9091 5.56365 15.7636 5.46183 15.7163 5.30183C15.3418 4.04365 14.3272 3.03637 13.0654 2.67637C12.8617 2.62547 12.7526 2.42547 12.8072 2.23274Z" fill="#6B7280"/>
<path d="M16.9233 16.4582C16.6943 16.5272 16.4581 16.589 16.2109 16.6435L18.8386 23.0543C18.8967 23.1961 19.0312 23.2796 19.1729 23.2796C19.2202 23.2796 19.2674 23.2724 19.311 23.2506C19.4964 23.1743 19.5872 22.9635 19.5109 22.7781L16.9233 16.4582Z" fill="#6B7280"/>
<path d="M4.48952 22.7778C4.4132 22.9632 4.50042 23.174 4.68578 23.2503C4.72939 23.2721 4.77663 23.2794 4.82388 23.2794C4.96562 23.2794 5.10373 23.1958 5.15824 23.054L7.78951 16.6433C7.54237 16.5887 7.30614 16.527 7.07717 16.4615L4.48952 22.7778Z" fill="#6B7280"/>
<path d="M11.6353 17.076V21.9894C11.6353 22.1893 11.7988 22.3529 11.9987 22.3529C12.1986 22.3529 12.3621 22.1893 12.3621 21.9894V17.076C12.2422 17.0796 12.1186 17.0796 11.9987 17.0796C11.8788 17.0796 11.7552 17.0796 11.6353 17.076Z" fill="#6B7280"/>
<path d="M21.2469 15.7773C21.6483 15.7773 21.9738 15.4519 21.9738 15.0505C21.9738 14.6491 21.6483 14.3236 21.2469 14.3236C20.8454 14.3236 20.52 14.6491 20.52 15.0505C20.52 15.4519 20.8454 15.7773 21.2469 15.7773Z" fill="#6B7280"/>
<path d="M19.4 3.16291H19.8543V3.61719C19.8543 3.76619 19.9779 3.88976 20.1269 3.88976C20.2759 3.88976 20.3995 3.76619 20.3995 3.61719V3.16291H20.8538C21.0028 3.16291 21.1263 3.03935 21.1263 2.89034C21.1263 2.74134 21.0064 2.61778 20.8538 2.61778H20.3995V2.1635C20.3995 2.01449 20.2759 1.89093 20.1269 1.89093C19.9779 1.89093 19.8543 2.01449 19.8543 2.1635V2.61778H19.4C19.251 2.61778 19.1274 2.74134 19.1274 2.89034C19.1274 3.03935 19.251 3.16291 19.4 3.16291Z" fill="#6B7280"/>
<path d="M4.85717 17.3411C5.00618 17.3411 5.12975 17.2175 5.12975 17.0685C5.12975 16.9195 5.00618 16.7959 4.85717 16.7959H4.40288V16.3417C4.40288 16.1927 4.27931 16.0691 4.1303 16.0691C3.9813 16.0691 3.85773 16.1927 3.85773 16.3417V16.7959H3.40344C3.25443 16.7959 3.13086 16.9195 3.13086 17.0685C3.13086 17.2175 3.25443 17.3411 3.40344 17.3411H3.85773V17.7954C3.85773 17.9444 3.9813 18.0679 4.1303 18.0679C4.27931 18.0679 4.40288 17.9444 4.40288 17.7954V17.3411H4.85717Z" fill="#6B7280"/>
<path d="M11.9986 16.3527C15.8714 16.3527 19.0133 15.3272 19.0133 14.0618V13.7345C16.9514 14.2472 14.4714 14.509 11.9986 14.509C9.52581 14.509 7.04575 14.2472 4.98389 13.7381V14.0654C4.98389 15.3272 8.12578 16.3527 11.9986 16.3527Z" fill="#6B7280"/>
<path d="M16.3619 10.6033C16.053 10.6033 15.8022 10.854 15.8022 11.1629C15.8022 11.4719 16.053 11.7226 16.3619 11.7226C16.6709 11.7226 16.9253 11.4719 16.9253 11.1629C16.9253 10.854 16.6709 10.6033 16.3619 10.6033Z" fill="#6B7280"/>
<path d="M7.63586 10.6036C7.32694 10.6036 7.07617 10.8544 7.07617 11.1633C7.07617 11.4722 7.32694 11.723 7.63586 11.723C7.94478 11.723 8.19918 11.4722 8.19918 11.1633C8.19918 10.8544 7.94478 10.6036 7.63586 10.6036Z" fill="#6B7280"/>
<path d="M11.9996 10.9855C11.6907 10.9855 11.4399 11.2362 11.4399 11.5451C11.4399 11.8541 11.6907 12.1085 11.9996 12.1085C12.3085 12.1085 12.563 11.8577 12.563 11.5488C12.563 11.2399 12.3085 10.9855 11.9996 10.9855Z" fill="#6B7280"/>
<path d="M18.302 7.05093C17.702 8.82912 14.6546 9.48366 12 9.48366C9.34543 9.48366 6.30172 8.82912 5.70171 7.05457C2.698 7.71275 0.727051 8.83275 0.727051 10.1018C0.727051 12.1309 5.77444 13.7818 12 13.7818C18.2256 13.7818 23.273 12.1346 23.273 10.1018C23.273 8.83275 21.2984 7.71275 18.302 7.05093ZM7.6363 12.4546C6.92356 12.4546 6.349 11.8764 6.349 11.1673C6.349 10.4582 6.92719 9.88002 7.6363 9.88002C8.34541 9.88002 8.92724 10.4582 8.92724 11.1673C8.92724 11.8764 8.34904 12.4546 7.6363 12.4546ZM12 12.8364C11.2873 12.8364 10.7127 12.2582 10.7127 11.5491C10.7127 10.84 11.2909 10.2618 12 10.2618C12.7091 10.2618 13.291 10.84 13.291 11.5491C13.291 12.2582 12.7091 12.8364 12 12.8364ZM16.3638 12.4546C15.651 12.4546 15.0765 11.8764 15.0765 11.1673C15.0765 10.4582 15.6547 9.88002 16.3638 9.88002C17.0729 9.88002 17.6547 10.4582 17.6547 11.1673C17.6547 11.8764 17.0729 12.4546 16.3638 12.4546Z" fill="#6B7280"/>
</svg>
