<svg width="24" height="24" viewBox="0 0 24 24" fill="none" xmlns="http://www.w3.org/2000/svg">
<path d="M16.2425 6.10725C16.2187 6.18414 16.171 6.25143 16.1063 6.2993C16.0415 6.34716 15.9632 6.3731 15.8827 6.37334H15.002V7.1229H15.8827C15.9632 7.12313 16.0415 7.14908 16.1063 7.19694C16.171 7.24481 16.2187 7.31209 16.2425 7.38899C16.2589 7.44209 16.2802 7.49354 16.3062 7.54265C16.3431 7.6134 16.3565 7.69409 16.3444 7.77295C16.3322 7.85182 16.2952 7.92476 16.2388 7.98115L15.9689 8.24724H18.0003C17.7038 8.24724 17.4139 8.15932 17.1674 7.99459C16.9209 7.82987 16.7287 7.59574 16.6152 7.32181C16.5018 7.04788 16.4721 6.74646 16.5299 6.45566C16.5878 6.16485 16.7306 5.89774 16.9402 5.68808C17.1499 5.47843 17.417 5.33565 17.7078 5.2778C17.9986 5.21996 18.3001 5.24965 18.574 5.36311C18.8479 5.47658 19.0821 5.66872 19.2468 5.91525C19.4115 6.16178 19.4995 6.45162 19.4995 6.74812C19.4995 7.14571 19.3415 7.52702 19.0604 7.80816C18.7792 8.0893 18.3979 8.24724 18.0003 8.24724H20.0317L19.7618 7.98115C19.7053 7.92476 19.6684 7.85182 19.6562 7.77295C19.6441 7.69409 19.6574 7.6134 19.6943 7.54265C19.7203 7.49354 19.7417 7.44209 19.7581 7.38899C19.7819 7.31209 19.8296 7.24481 19.8943 7.19694C19.959 7.14908 20.0374 7.12313 20.1179 7.1229H20.9986V6.37334H20.1179C20.0374 6.3731 19.959 6.34716 19.8943 6.2993C19.8296 6.25143 19.7819 6.18414 19.7581 6.10725C19.7417 6.05415 19.7203 6.0027 19.6943 5.95359C19.6574 5.88283 19.6441 5.80215 19.6562 5.72328C19.6684 5.64442 19.7053 5.57148 19.7618 5.51509L20.3877 4.89296L19.8555 4.36077L19.2334 4.98665C19.177 5.04311 19.104 5.0801 19.0252 5.09224C18.9463 5.10437 18.8656 5.09101 18.7948 5.05411C18.7457 5.02812 18.6943 5.00679 18.6412 4.9904C18.5643 4.9666 18.497 4.91886 18.4491 4.85414C18.4013 4.78943 18.3753 4.71111 18.3751 4.63061V3.74988H17.6255V4.63061C17.6253 4.71111 17.5993 4.78943 17.5514 4.85414C17.5036 4.91886 17.4363 4.9666 17.3594 4.9904C17.3063 5.00679 17.2548 5.02812 17.2057 5.05411C17.135 5.09101 17.0543 5.10437 16.9754 5.09224C16.8965 5.0801 16.8236 5.04311 16.7672 4.98665L16.1451 4.36077L15.6129 4.89296L16.2388 5.51509C16.2952 5.57148 16.3322 5.64442 16.3444 5.72328C16.3565 5.80215 16.3431 5.88283 16.3062 5.95359C16.2802 6.0027 16.2589 6.05415 16.2425 6.10725Z" fill="#6B7280"/>
<path d="M21.0026 16.23V12H16.5025C16.433 12.0008 16.3647 11.9818 16.3057 11.9453C16.2466 11.9088 16.1991 11.8562 16.1687 11.7937L15.3774 10.215V17.52L16.3825 17.7862C16.7294 17.8812 17.0303 18.0983 17.23 18.3975L20.8863 16.2862C20.9238 16.2675 20.9651 16.2487 21.0026 16.23Z" fill="#6B7280"/>
<path d="M14.3887 9H8.8568L7.73242 11.2487H13.2643L14.3887 9Z" fill="#6B7280"/>
<path d="M18.001 7.49894C18.415 7.49894 18.7506 7.16335 18.7506 6.74938C18.7506 6.33541 18.415 5.99982 18.001 5.99982C17.5871 5.99982 17.2515 6.33541 17.2515 6.74938C17.2515 7.16335 17.5871 7.49894 18.001 7.49894Z" fill="#6B7280"/>
<path d="M8.25147 4.12346C8.2511 4.49337 8.32944 4.85912 8.4813 5.19642C8.63315 5.53373 8.85504 5.83486 9.13223 6.07981C9.32785 6.25461 9.48413 6.46894 9.59073 6.70863C9.69734 6.94833 9.75184 7.20792 9.75064 7.47025V8.24604H10.5002V7.1217C10.5002 7.02231 10.5397 6.92698 10.61 6.85669C10.6803 6.78641 10.7756 6.74692 10.875 6.74692C10.9744 6.74692 11.0697 6.78641 11.14 6.85669C11.2103 6.92698 11.2498 7.02231 11.2498 7.1217V8.24604H11.9994V7.47025C11.998 7.20754 12.0528 6.94757 12.1601 6.70777C12.2674 6.46797 12.4248 6.25387 12.6215 6.07981C12.9174 5.81601 13.1496 5.48861 13.3008 5.12219C13.4519 4.75576 13.5181 4.35986 13.4943 3.9642C13.4705 3.56854 13.3573 3.18342 13.1633 2.83776C12.9693 2.49211 12.6995 2.1949 12.3742 1.96848V4.12346C12.3739 4.18519 12.3583 4.24589 12.3289 4.30015C12.2995 4.35442 12.2571 4.40058 12.2055 4.43453L11.0811 5.18409C11.0206 5.22618 10.9487 5.24874 10.875 5.24874C10.8013 5.24874 10.7294 5.22618 10.6689 5.18409L9.5445 4.43453C9.49295 4.40058 9.45057 4.35442 9.42115 4.30015C9.39173 4.24589 9.37617 4.18519 9.37585 4.12346V1.96848C9.02805 2.2099 8.74405 2.53213 8.54821 2.90748C8.35237 3.28283 8.25054 3.7001 8.25147 4.12346Z" fill="#6B7280"/>
<path d="M15.6094 8.99973L16.7338 11.2484H22.2657L21.1413 8.99973H15.6094Z" fill="#6B7280"/>
<path d="M10.786 16.2864L14.6238 17.3133V10.215L13.833 11.7928C13.8027 11.8552 13.7552 11.9078 13.6962 11.9443C13.6371 11.9808 13.5689 11.9997 13.4995 11.9989H9.00195V16.3913L9.47044 16.2752C9.9027 16.1664 10.3556 16.1703 10.786 16.2864Z" fill="#6B7280"/>
<path d="M4.5 16.5H6.74875V22.4965H4.5V16.5Z" fill="#6B7280"/>
<path d="M9.15754 22.125H14.7714C15.1006 22.1253 15.424 22.0386 15.7089 21.8738L22.0091 18.2363C22.1804 18.136 22.305 17.972 22.3556 17.7802C22.4062 17.5883 22.3787 17.3841 22.2791 17.2125C22.1778 17.0434 22.0148 16.9204 21.8245 16.8693C21.6341 16.8182 21.4314 16.8431 21.2591 16.9388L17.4827 19.1175C17.497 19.2874 17.4831 19.4584 17.4415 19.6238C17.3907 19.8145 17.3026 19.9933 17.1822 20.1497C17.0619 20.3061 16.9116 20.4371 16.7402 20.535C16.514 20.668 16.2563 20.7379 15.9939 20.7375C15.8622 20.7369 15.7311 20.7192 15.6039 20.685L11.1301 19.4888C11.0336 19.4629 10.9514 19.3998 10.9014 19.3133C10.8515 19.2268 10.838 19.124 10.8638 19.0275C10.8897 18.931 10.9528 18.8488 11.0393 18.7988C11.1258 18.7489 11.2286 18.7354 11.3251 18.7613L15.7989 19.9613C15.8935 19.9874 15.9924 19.9942 16.0897 19.9813C16.187 19.9684 16.2807 19.9361 16.3652 19.8863C16.4946 19.813 16.5993 19.7028 16.6657 19.5697C16.7321 19.4367 16.7572 19.2868 16.7379 19.1393C16.7185 18.9919 16.6556 18.8536 16.5571 18.7421C16.4587 18.6306 16.3291 18.5511 16.1852 18.5138L10.5901 17.0138C10.2821 16.9307 9.95802 16.9281 9.6488 17.0063L7.5 17.5425V21.5175L8.31752 21.9263C8.57805 22.0575 8.86581 22.1256 9.15754 22.125Z" fill="#6B7280"/>
<path d="M1.5 17.25H3.74875V21.7474H1.5V17.25Z" fill="#6B7280"/>
</svg>
