<svg width="25" height="24" viewBox="0 0 25 24" fill="none" xmlns="http://www.w3.org/2000/svg">
<g clip-path="url(#clip0_37_13574)">
<path d="M22.5952 1.17114H1.40726C0.631928 1.17114 0.000976562 1.80208 0.000976562 2.57739V16.5461C0.000976562 17.3215 0.631928 17.9524 1.40726 17.9524H22.5952C23.3706 17.9524 24.0015 17.3215 24.0015 16.5461V2.57739C24.0015 1.80208 23.3706 1.17114 22.5952 1.17114Z" fill="#6B7280"/>
<path d="M19.5013 21.4219H15.7044V19.3594H8.29795V21.4219H4.50099C4.11286 21.4219 3.79785 21.7369 3.79785 22.125C3.79785 22.5131 4.11286 22.8281 4.50099 22.8281H19.5013C19.8895 22.8281 20.2045 22.5131 20.2045 22.125C20.2045 21.7369 19.8895 21.4219 19.5013 21.4219Z" fill="#6B7280"/>
</g>
<defs>
<clipPath id="clip0_37_13574">
<rect width="24.0005" height="24" fill="white" transform="translate(0.000976562)"/>
</clipPath>
</defs>
</svg>
