<svg width="24" height="24" viewBox="0 0 24 24" fill="none" xmlns="http://www.w3.org/2000/svg">
<path d="M15.7356 16.0502C15.7368 15.2151 16.069 14.4146 16.6595 13.8241C17.25 13.2336 18.0506 12.9013 18.8857 12.9002H21.2857V11.5952C21.267 10.2639 20.1269 9.46142 18.8557 9.60017V6.73517C18.8554 6.6358 18.8158 6.54059 18.7455 6.47033C18.6752 6.40007 18.58 6.36047 18.4806 6.36017H16.0056C16.005 6.61094 15.9888 6.86143 15.9568 7.11017H18.1056V9.60017C16.036 9.60021 7.98697 9.60014 5.77161 9.60017H3.90032C3.57265 9.59631 3.25972 9.46344 3.02938 9.23038C2.79904 8.99732 2.66986 8.68285 2.66986 8.35517C2.66986 8.02749 2.79904 7.71302 3.02938 7.47996C3.25972 7.24689 3.57265 7.11403 3.90032 7.11017H4.80409C4.77188 6.86146 4.7556 6.61095 4.75534 6.36017H3.90032C3.37152 6.3612 2.86467 6.57172 2.49075 6.94563C2.11683 7.31955 1.90631 7.82638 1.90527 8.35517V20.5052C1.90631 21.034 2.11683 21.5408 2.49075 21.9147C2.86467 22.2886 3.37152 22.4991 3.90032 22.5002H19.2907C19.8195 22.4991 20.3263 22.2886 20.7002 21.9147C21.0741 21.5408 21.2847 21.034 21.2857 20.5052V19.2002H18.8857C18.0506 19.199 17.25 18.8668 16.6595 18.2763C16.069 17.6858 15.7368 16.8852 15.7356 16.0502ZM7.5304 20.2502H4.53033C4.43179 20.2488 4.33776 20.2087 4.26857 20.1385C4.19938 20.0683 4.16059 19.9737 4.16059 19.8752C4.16059 19.7766 4.19938 19.682 4.26857 19.6119C4.33776 19.5417 4.43179 19.5016 4.53033 19.5002H7.5304C7.62896 19.5015 7.72303 19.5416 7.79225 19.6118C7.86147 19.682 7.90028 19.7766 7.90028 19.8752C7.90028 19.9737 7.86147 20.0683 7.79225 20.1385C7.72303 20.2087 7.62896 20.2488 7.5304 20.2502Z" fill="#6B7280"/>
<path d="M21.3429 13.6502H18.8843C15.7098 13.7626 15.7098 18.335 18.8843 18.4474H21.3429C21.5415 18.4468 21.7319 18.3677 21.8723 18.2272C22.0128 18.0868 22.0919 17.8965 22.0925 17.6978V14.3998C22.0919 14.2012 22.0128 14.0108 21.8723 13.8704C21.7319 13.7299 21.5415 13.6508 21.3429 13.6502ZM18.8843 16.4236C18.786 16.4218 18.6924 16.3816 18.6236 16.3115C18.5547 16.2414 18.5161 16.1471 18.5161 16.0488C18.5161 15.9505 18.5547 15.8562 18.6236 15.7861C18.6924 15.716 18.786 15.6758 18.8843 15.674C18.9826 15.6757 19.0763 15.7159 19.1452 15.786C19.2141 15.8561 19.2528 15.9505 19.2528 16.0488C19.2528 16.1471 19.2141 16.2415 19.1452 16.3116C19.0763 16.3817 18.9826 16.4219 18.8843 16.4236Z" fill="#6B7280"/>
<path d="M6.17641 8.85019H10.0053V8.43769H9.25523C9.15578 8.43769 9.06039 8.39818 8.99006 8.32786C8.91973 8.25753 8.88023 8.16215 8.88023 8.06269C8.88023 7.96324 8.91973 7.86785 8.99006 7.79753C9.06039 7.7272 9.15578 7.68769 9.25523 7.68769H10.6615C10.7858 7.68769 10.9051 7.63831 10.993 7.5504C11.0809 7.46249 11.1303 7.34326 11.1303 7.21894C11.1303 7.09462 11.0809 6.97539 10.993 6.88749C10.9051 6.79958 10.7858 6.75019 10.6615 6.75019H10.099C9.78646 6.74772 9.48689 6.62493 9.26252 6.40735C9.03815 6.18976 8.90623 5.8941 8.89417 5.58179C8.8821 5.26948 8.99083 4.96453 9.19774 4.73029C9.40466 4.49605 9.69387 4.35052 10.0053 4.32394L10.0053 4.06519C10.0053 3.96574 10.0448 3.87035 10.1151 3.80003C10.1854 3.7297 10.2808 3.69019 10.3803 3.69019C10.4797 3.69019 10.5751 3.7297 10.6454 3.80003C10.7158 3.87035 10.7553 3.96574 10.7553 4.06519V4.31269H11.5053C11.6047 4.31269 11.7001 4.3522 11.7705 4.42253C11.8408 4.49286 11.8803 4.58824 11.8803 4.68769C11.8803 4.78715 11.8408 4.88253 11.7705 4.95286C11.7001 5.02319 11.6047 5.06269 11.5053 5.06269H10.099C9.97585 5.06447 9.85835 5.11464 9.77189 5.20236C9.68543 5.29008 9.63696 5.40829 9.63696 5.53145C9.63697 5.65462 9.68544 5.77283 9.7719 5.86054C9.85837 5.94826 9.97587 5.99842 10.099 6.00019H10.6615C10.9741 6.00259 11.2738 6.12534 11.4982 6.34293C11.7226 6.56052 11.8546 6.85622 11.8667 7.16858C11.8787 7.48094 11.77 7.78594 11.563 8.0202C11.356 8.25445 11.0667 8.39994 10.7552 8.42644L10.7553 8.85019H14.5804C14.9003 8.31578 15.1107 7.72301 15.1991 7.10644C15.3022 6.4128 15.2549 5.70509 15.0602 5.03136C14.8656 4.35764 14.5283 3.73369 14.0712 3.20188C13.614 2.67007 13.0478 2.24285 12.411 1.94924C11.7741 1.65562 11.0815 1.50249 10.3803 1.50023C6.66062 1.45166 4.25508 5.68088 6.17641 8.85019Z" fill="#6B7280"/>
</svg>
