<svg width="25" height="24" viewBox="0 0 25 24" fill="none" xmlns="http://www.w3.org/2000/svg">
<g clip-path="url(#clip0_37_13580)">
<path d="M3.42473 5.77334C3.5592 5.25364 3.96624 4.84661 4.48959 4.70851C3.96988 4.57404 3.56283 4.16701 3.42473 3.64368C3.29026 4.16337 2.88321 4.57041 2.35986 4.70851C2.87957 4.84661 3.28662 5.25364 3.42473 5.77334Z" fill="#6B7280"/>
<path d="M17.6888 6.40004C17.6888 3.25822 15.1433 0.712769 12.0014 0.712769C8.85948 0.712769 6.31396 3.25822 6.31396 6.40004C6.31396 9.54186 17.6888 9.54186 17.6888 6.40004ZM12.8087 2.23277C12.8632 2.04004 13.0632 1.92731 13.2596 1.98186C14.7614 2.40731 15.9687 3.60368 16.4124 5.09822C16.4706 5.29095 16.3578 5.49459 16.1687 5.54913C16.136 5.56004 16.0996 5.56368 16.0669 5.56368C15.9105 5.56368 15.7651 5.46186 15.7178 5.30186C15.3433 4.04368 14.3287 3.0364 13.0668 2.6764C12.8632 2.6255 12.7541 2.4255 12.8087 2.23277Z" fill="#6B7280"/>
<path d="M16.9247 16.4583C16.6958 16.5273 16.4595 16.5891 16.2124 16.6436L18.84 23.0544C18.8982 23.1961 19.0327 23.2797 19.1744 23.2797C19.2216 23.2797 19.2689 23.2724 19.3125 23.2506C19.4978 23.1743 19.5887 22.9635 19.5124 22.7782L16.9247 16.4583Z" fill="#6B7280"/>
<path d="M4.49099 22.7778C4.41467 22.9632 4.50189 23.174 4.68724 23.2503C4.73085 23.2721 4.7781 23.2794 4.82535 23.2794C4.96709 23.2794 5.10519 23.1958 5.15971 23.054L7.79097 16.6433C7.54384 16.5887 7.3076 16.527 7.07864 16.4615L4.49099 22.7778Z" fill="#6B7280"/>
<path d="M11.6367 17.076V21.9895C11.6367 22.1894 11.8003 22.353 12.0002 22.353C12.2 22.353 12.3636 22.1894 12.3636 21.9895V17.076C12.2437 17.0797 12.1201 17.0797 12.0002 17.0797C11.8802 17.0797 11.7567 17.0797 11.6367 17.076Z" fill="#6B7280"/>
<path d="M21.2484 15.7774C21.6498 15.7774 21.9752 15.452 21.9752 15.0506C21.9752 14.6492 21.6498 14.3237 21.2484 14.3237C20.8469 14.3237 20.5215 14.6492 20.5215 15.0506C20.5215 15.452 20.8469 15.7774 21.2484 15.7774Z" fill="#6B7280"/>
<path d="M19.4015 3.16297H19.8558V3.61725C19.8558 3.76626 19.9793 3.88982 20.1284 3.88982C20.2774 3.88982 20.4009 3.76626 20.4009 3.61725V3.16297H20.8552C21.0042 3.16297 21.1278 3.03941 21.1278 2.89041C21.1278 2.7414 21.0079 2.61784 20.8552 2.61784H20.4009V2.16356C20.4009 2.01456 20.2774 1.89099 20.1284 1.89099C19.9793 1.89099 19.8558 2.01456 19.8558 2.16356V2.61784H19.4015C19.2525 2.61784 19.1289 2.7414 19.1289 2.89041C19.1289 3.03941 19.2525 3.16297 19.4015 3.16297Z" fill="#6B7280"/>
<path d="M4.85864 17.3411C5.00765 17.3411 5.13121 17.2175 5.13121 17.0685C5.13121 16.9195 5.00765 16.7959 4.85864 16.7959H4.40434V16.3417C4.40434 16.1927 4.28078 16.0691 4.13177 16.0691C3.98276 16.0691 3.85919 16.1927 3.85919 16.3417V16.7959H3.4049C3.25589 16.7959 3.13232 16.9195 3.13232 17.0685C3.13232 17.2175 3.25589 17.3411 3.4049 17.3411H3.85919V17.7954C3.85919 17.9444 3.98276 18.0679 4.13177 18.0679C4.28078 18.0679 4.40434 17.9444 4.40434 17.7954V17.3411H4.85864Z" fill="#6B7280"/>
<path d="M12.0001 16.3527C15.8729 16.3527 19.0148 15.3272 19.0148 14.0618V13.7345C16.9529 14.2472 14.4728 14.509 12.0001 14.509C9.52727 14.509 7.04722 14.2472 4.98535 13.7381V14.0654C4.98535 15.3272 8.12724 16.3527 12.0001 16.3527Z" fill="#6B7280"/>
<path d="M16.3634 10.6033C16.0545 10.6033 15.8037 10.854 15.8037 11.1629C15.8037 11.4719 16.0545 11.7226 16.3634 11.7226C16.6723 11.7226 16.9267 11.4719 16.9267 11.1629C16.9267 10.854 16.6723 10.6033 16.3634 10.6033Z" fill="#6B7280"/>
<path d="M7.63733 10.6036C7.32841 10.6036 7.07764 10.8544 7.07764 11.1633C7.07764 11.4722 7.32841 11.723 7.63733 11.723C7.94625 11.723 8.20065 11.4722 8.20065 11.1633C8.20065 10.8544 7.94625 10.6036 7.63733 10.6036Z" fill="#6B7280"/>
<path d="M12.0011 10.9855C11.6922 10.9855 11.4414 11.2362 11.4414 11.5451C11.4414 11.8541 11.6922 12.1085 12.0011 12.1085C12.31 12.1085 12.5644 11.8577 12.5644 11.5488C12.5644 11.2399 12.31 10.9855 12.0011 10.9855Z" fill="#6B7280"/>
<path d="M18.3035 7.0509C17.7034 8.82908 14.6561 9.48363 12.0015 9.48363C9.34689 9.48363 6.30319 8.82909 5.70317 7.05454C2.69947 7.71272 0.728516 8.83272 0.728516 10.1018C0.728516 12.1309 5.7759 13.7818 12.0015 13.7818C18.2271 13.7818 23.2745 12.1345 23.2745 10.1018C23.2745 8.83272 21.2999 7.71272 18.3035 7.0509ZM7.63776 12.4545C6.92502 12.4545 6.35046 11.8764 6.35046 11.1673C6.35046 10.4582 6.92866 9.87999 7.63776 9.87999C8.34687 9.87999 8.9287 10.4582 8.9287 11.1673C8.9287 11.8764 8.35051 12.4545 7.63776 12.4545ZM12.0015 12.8364C11.2888 12.8364 10.7142 12.2582 10.7142 11.5491C10.7142 10.84 11.2924 10.2618 12.0015 10.2618C12.7106 10.2618 13.2924 10.84 13.2924 11.5491C13.2924 12.2582 12.7106 12.8364 12.0015 12.8364ZM16.3652 12.4545C15.6525 12.4545 15.0779 11.8764 15.0779 11.1673C15.0779 10.4582 15.6561 9.87999 16.3652 9.87999C17.0743 9.87999 17.6562 10.4582 17.6562 11.1673C17.6562 11.8764 17.0743 12.4545 16.3652 12.4545Z" fill="#6B7280"/>
</g>
<defs>
<clipPath id="clip0_37_13580">
<rect width="24.0005" height="24" fill="white" transform="translate(0.00146484)"/>
</clipPath>
</defs>
</svg>
