<svg width="24" height="24" viewBox="0 0 24 24" fill="none" xmlns="http://www.w3.org/2000/svg">
<path d="M11.0028 12.516C11.4512 12.516 11.8146 12.1525 11.8146 11.7042C11.8146 11.2558 11.4512 10.8923 11.0028 10.8923C10.5544 10.8923 10.1909 11.2558 10.1909 11.7042C10.1909 12.1525 10.5544 12.516 11.0028 12.516Z" fill="#6B7280"/>
<path d="M8.63998 17.316C9.08836 17.316 9.45184 16.9525 9.45184 16.5042C9.45184 16.0558 9.08836 15.6923 8.63998 15.6923C8.19161 15.6923 7.82812 16.0558 7.82812 16.5042C7.82812 16.9525 8.19161 17.316 8.63998 17.316Z" fill="#6B7280"/>
<path d="M13.6244 6.60828C14.0727 6.60828 14.4362 6.24481 14.4362 5.79645C14.4362 5.34809 14.0727 4.98462 13.6244 4.98462C13.176 4.98462 12.8125 5.34809 12.8125 5.79645C12.8125 6.24481 13.176 6.60828 13.6244 6.60828Z" fill="#6B7280"/>
<path d="M14.1771 16.1342C14.6255 16.1342 14.9889 15.7708 14.9889 15.3224C14.9889 14.874 14.6255 14.5106 14.1771 14.5106C13.7287 14.5106 13.3652 14.874 13.3652 15.3224C13.3652 15.7708 13.7287 16.1342 14.1771 16.1342Z" fill="#6B7280"/>
<path d="M23.4466 9.63682C23.6682 9.63682 23.8159 9.48912 23.8159 9.26759C23.8159 9.04605 23.6682 8.89836 23.4466 8.89836H21.0097V6.90451H23.4466C23.6682 6.90451 23.8159 6.75682 23.8159 6.53528C23.8159 6.31374 23.6682 6.16605 23.4466 6.16605H21.0097V5.39066C21.0097 4.09836 19.9389 3.02759 18.6096 3.02759H17.8342V0.55374C17.8342 0.332202 17.6865 0.184509 17.465 0.184509C17.2434 0.184509 17.0957 0.332202 17.0957 0.55374V2.99066H15.1018V0.55374C15.1018 0.332202 14.9541 0.184509 14.7326 0.184509C14.511 0.184509 14.3634 0.332202 14.3634 0.55374V2.99066H12.3695V0.55374C12.3695 0.332202 12.2218 0.184509 12.0002 0.184509C11.7787 0.184509 11.631 0.332202 11.631 0.55374V2.99066H9.63709V0.55374C9.63709 0.332202 9.4894 0.184509 9.26785 0.184509C9.04631 0.184509 8.89861 0.332202 8.89861 0.55374V2.99066H6.90472V0.55374C6.90472 0.332202 6.75703 0.184509 6.53548 0.184509C6.31394 0.184509 6.16624 0.332202 6.16624 0.55374V2.99066H5.39084C4.09851 2.99066 3.02771 4.06143 3.02771 5.35374V6.12912H0.553809C0.332266 6.12912 0.18457 6.27682 0.18457 6.49836C0.18457 6.71989 0.332266 6.86759 0.553809 6.86759H2.99079V7.38451H5.83393L8.27091 5.42759H12.111C12.2956 4.76297 12.8864 4.24605 13.6249 4.24605C14.4741 4.24605 15.1757 4.94759 15.1757 5.79682C15.1757 6.64605 14.4741 7.34759 13.6249 7.34759C12.8864 7.34759 12.2956 6.83066 12.111 6.16605H8.52938L6.0924 8.12297H2.99079V8.89836H0.553809C0.332266 8.89836 0.18457 9.04605 0.18457 9.26759C0.18457 9.48912 0.332266 9.63682 0.553809 9.63682H2.99079V10.1537H6.60933L7.6432 11.1876H9.56324C9.78479 10.5968 10.3386 10.1537 11.0033 10.1537C11.8525 10.1537 12.5541 10.8553 12.5541 11.7045C12.5541 12.5537 11.8525 13.2553 11.0033 13.2553C10.2279 13.2553 9.60017 12.6645 9.4894 11.926H7.34781L6.31394 10.8922H2.99079V11.6307H0.553809C0.332266 11.6307 0.18457 11.7784 0.18457 11.9999C0.18457 12.2214 0.332266 12.3691 0.553809 12.3691H2.99079V14.363H0.553809C0.332266 14.363 0.18457 14.5107 0.18457 14.7322C0.18457 14.9537 0.332266 15.1014 0.553809 15.1014H2.99079V17.0953H0.553809C0.332266 17.0953 0.18457 17.243 0.18457 17.4645C0.18457 17.686 0.332266 17.8337 0.553809 17.8337H2.99079V18.6091C2.99079 19.9014 4.06158 20.9722 5.35392 20.9722H6.12932V23.4091C6.12932 23.6307 6.27702 23.7784 6.49856 23.7784C6.7201 23.7784 6.8678 23.6307 6.8678 23.4091V20.9722H8.86169V23.4091C8.86169 23.6307 9.00939 23.7784 9.23093 23.7784C9.45247 23.7784 9.60017 23.6307 9.60017 23.4091V20.9722H11.5941V23.4091C11.5941 23.6307 11.7418 23.7784 11.9633 23.7784C12.1848 23.7784 12.3325 23.6307 12.3325 23.4091V20.9722H14.3264V23.4091C14.3264 23.6307 14.4741 23.7784 14.6957 23.7784C14.9172 23.7784 15.0649 23.6307 15.0649 23.4091V20.9722H17.0588V23.4091C17.0588 23.6307 17.2065 23.7784 17.428 23.7784C17.6496 23.7784 17.7973 23.6307 17.7973 23.4091V20.9722H18.5727C19.9019 20.9722 20.9727 19.9014 20.9727 18.6091V17.8337H23.4097C23.6313 17.8337 23.779 17.686 23.779 17.4645C23.779 17.243 23.6313 17.0953 23.4097 17.0953H20.9727V17.0584H16.5419L15.5449 18.0553H12.0371L10.8925 16.9107H10.154C9.96941 17.5753 9.37863 18.0922 8.64015 18.0922C7.7909 18.0922 7.08934 17.3907 7.08934 16.5414C7.08934 15.6922 7.7909 14.9907 8.64015 14.9907C9.37863 14.9907 9.96941 15.5076 10.154 16.1722H11.2248L12.3695 17.3168H15.2495L16.2465 16.3199H21.0097V15.1014H23.4466C23.6682 15.1014 23.8159 14.9537 23.8159 14.7322C23.8159 14.5107 23.6682 14.363 23.4466 14.363H21.0097V13.5137H16.5788L15.508 14.5476C15.6557 14.7691 15.7295 15.0645 15.7295 15.323C15.7295 16.1722 15.028 16.8737 14.1787 16.8737C13.3295 16.8737 12.6279 16.1722 12.6279 15.323C12.6279 14.4737 13.3295 13.7722 14.1787 13.7722C14.4741 13.7722 14.7326 13.846 14.9911 13.9937L16.3203 12.7753H21.0466V12.3691H23.4836C23.7051 12.3691 23.8528 12.2214 23.8528 11.9999C23.8528 11.7784 23.7051 11.6307 23.4836 11.6307H21.0466V9.63682H23.4466ZM7.90167 18.7937C8.12321 18.7937 8.27091 18.9414 8.27091 19.163C8.27091 19.3845 8.12321 19.5322 7.90167 19.5322H6.38779C5.35392 19.5322 4.46774 18.683 4.46774 17.6122V13.1445C4.46774 12.923 4.61544 12.7753 4.83698 12.7753C5.05853 12.7753 5.20622 12.923 5.20622 13.1445V17.6122C5.20622 18.2399 5.72316 18.7937 6.38779 18.7937H7.90167ZM19.5327 9.74759C19.5327 9.96912 19.385 10.1168 19.1635 10.1168C18.9419 10.1168 18.7942 9.96912 18.7942 9.74759V6.35066C18.7942 5.72297 18.2773 5.16912 17.6127 5.16912H16.0988C15.8772 5.16912 15.7295 5.02143 15.7295 4.79989C15.7295 4.57836 15.8772 4.43066 16.0988 4.43066H17.6127C18.6465 4.43066 19.5327 5.27989 19.5327 6.35066V9.74759Z" fill="#6B7280"/>
</svg>
