<svg width="24" height="24" viewBox="0 0 24 24" fill="none" xmlns="http://www.w3.org/2000/svg">
<g clip-path="url(#clip0_37_13571)">
<path d="M19.0321 21.8438H16.726L16.2572 20.4375H7.7441L7.27534 21.8438H4.96925C4.5807 21.8438 4.26611 22.1583 4.26611 22.5469C4.26611 22.9354 4.5807 23.25 4.96925 23.25H19.0321C19.4206 23.25 19.7352 22.9354 19.7352 22.5469C19.7352 22.1583 19.4206 21.8438 19.0321 21.8438Z" fill="#6B7280"/>
<path d="M19.0318 4.96875C18.6441 4.96875 18.3291 5.28369 18.3291 5.67146C18.3291 6.05924 18.6441 6.37418 19.0318 6.37418C19.4196 6.37418 19.7346 6.05924 19.7346 5.67146C19.7346 5.28369 19.4196 4.96875 19.0318 4.96875Z" fill="#6B7280"/>
<path d="M21.8447 0.749512H2.10991C0.946799 0.749512 0.000488281 1.6958 0.000488281 2.85889V14.812H4.26621V12.7026C4.26621 12.3141 4.58079 11.9995 4.96935 11.9995H6.05574C6.12843 11.795 6.21157 11.5943 6.30568 11.3973L5.53717 10.6282C5.26251 10.3536 5.26251 9.90863 5.53717 9.63397L7.52574 7.64545C7.80041 7.37079 8.24536 7.37079 8.52003 7.64545L9.28909 8.41449C9.48611 8.32037 9.68662 8.23669 9.89134 8.16382V7.07764C9.89134 6.68909 10.2059 6.37451 10.5945 6.37451H13.407C13.7956 6.37451 14.1102 6.68909 14.1102 7.07764V8.164C14.3147 8.23669 14.5154 8.32056 14.7124 8.41449L15.4815 7.64545C15.7562 7.37097 16.2011 7.37097 16.4758 7.64545L18.4643 9.63397C18.739 9.90863 18.739 10.3538 18.4643 10.6282L17.6958 11.3973C17.79 11.5945 17.8731 11.795 17.9458 11.9995H19.0322C19.4207 11.9995 19.7353 12.3141 19.7353 12.7026V14.812H24.001V2.85889C24.001 1.6958 23.0078 0.749512 21.8447 0.749512ZM19.0322 7.78076C17.8691 7.78076 16.9227 6.83447 16.9227 5.67139C16.9227 4.5083 17.8691 3.56201 19.0322 3.56201C20.1953 3.56201 21.1416 4.5083 21.1416 5.67139C21.1416 6.83447 20.1953 7.78076 19.0322 7.78076Z" fill="#6B7280"/>
<path d="M9.89111 14.1081C9.89111 14.351 9.94711 14.5852 10.0275 14.8109H13.9712C14.0515 14.5852 14.1075 14.351 14.1075 14.1081C14.1075 12.9457 13.1618 12 11.9993 12C10.8367 12 9.89111 12.9457 9.89111 14.1081Z" fill="#6B7280"/>
<path d="M7.25571 12.8789C7.17551 13.1893 6.89535 13.4062 6.57454 13.4062H5.67236V14.8125H8.5774C8.53016 14.5809 8.48493 14.3481 8.48493 14.1094C8.48493 12.171 10.0622 10.5937 12.0006 10.5937C13.939 10.5937 15.5163 12.171 15.5163 14.1094C15.5163 14.3481 15.4711 14.5809 15.4239 14.8125H18.3289V13.4062H17.4267C17.1059 13.4062 16.8258 13.1893 16.7456 12.8789C16.6335 12.4429 16.4584 12.0212 16.225 11.6257C16.0622 11.3498 16.1069 10.9982 16.3334 10.7715L16.9728 10.1316L15.9785 9.13733L15.3385 9.77728C15.1118 10.0047 14.7595 10.0499 14.4836 9.88513C14.0888 9.6524 13.6678 9.47662 13.2311 9.36456C12.9208 9.28436 12.7038 9.00421 12.7038 8.68341V7.78125H11.2975V8.68341C11.2975 9.00421 11.0805 9.28436 10.7701 9.36456C10.3334 9.47662 9.91245 9.6524 9.51767 9.88513C9.243 10.0499 8.88997 10.0047 8.66273 9.77728L8.02276 9.13733L7.02847 10.1316L7.66789 10.7715C7.8944 10.9982 7.93908 11.3498 7.77629 11.6257C7.54283 12.0212 7.36778 12.4429 7.25571 12.8789Z" fill="#6B7280"/>
<path d="M0.000488281 16.9219C0.000488281 18.085 0.946799 19.0312 2.10991 19.0312H21.8447C23.0078 19.0312 24.001 18.085 24.001 16.9219V16.2188H0.000488281V16.9219Z" fill="#6B7280"/>
</g>
<defs>
<clipPath id="clip0_37_13571">
<rect width="24.0005" height="24" fill="white" transform="translate(0.000488281)"/>
</clipPath>
</defs>
</svg>
