<svg width="24" height="24" viewBox="0 0 24 24" fill="none" xmlns="http://www.w3.org/2000/svg">
<g clip-path="url(#clip0_201_1738)">
<path d="M11.9991 7.42761C9.47759 7.42761 7.42627 9.47894 7.42627 12.0003C7.42627 14.5218 9.47759 16.5732 11.9991 16.5732C14.5205 16.5732 16.5718 14.5218 16.5718 12.0003C16.5718 9.47894 14.5205 7.42761 11.9991 7.42761ZM14.714 11.1392L11.4381 14.4151C11.3006 14.5526 11.1202 14.6214 10.9401 14.6214C10.7599 14.6214 10.5797 14.5528 10.4422 14.4151L9.1903 13.1632C8.91528 12.8884 8.91528 12.4425 9.1903 12.1675C9.46514 11.8924 9.911 11.8924 10.186 12.1675L10.9401 12.9215L13.7183 10.1434C13.9931 9.8684 14.439 9.8684 14.714 10.1434C14.9891 10.4183 14.9891 10.8641 14.714 11.1392Z" fill="#6B7280"/>
<path d="M22.1947 6.51175L22.1939 6.49307C22.1835 6.26254 22.1765 6.01864 22.1723 5.74728C22.1527 4.42398 21.1008 3.32938 19.7773 3.25541C17.0178 3.10142 14.8831 2.20164 13.0592 0.423873L13.0436 0.409041C12.4487 -0.136428 11.5513 -0.136428 10.9562 0.409041L10.9406 0.423873C9.11665 2.20164 6.98197 3.10142 4.22251 3.25559C2.89918 3.32938 1.84704 4.42398 1.82745 5.74747C1.82342 6.017 1.81628 6.26089 1.80584 6.49307L1.80474 6.53647C1.75109 9.35024 1.68444 12.8521 2.85597 16.0306C3.50015 17.7786 4.47575 19.298 5.7555 20.5469C7.21305 21.9693 9.12215 23.0985 11.4297 23.9031C11.5048 23.9292 11.5828 23.9505 11.6622 23.9664C11.7743 23.9887 11.8871 23.9999 11.9999 23.9999C12.1127 23.9999 12.2257 23.9887 12.3375 23.9664C12.417 23.9505 12.4956 23.9291 12.571 23.9027C14.8758 23.0967 16.7829 21.9669 18.2391 20.5447C19.5183 19.2954 20.494 17.7756 21.1387 16.0273C22.3146 12.8393 22.2481 9.33083 22.1947 6.51175ZM11.9995 17.9814C8.70136 17.9814 6.01826 15.2984 6.01826 12.0003C6.01826 8.70223 8.70136 6.01919 11.9995 6.01919C15.2975 6.01919 17.9808 8.70223 17.9808 12.0003C17.9808 15.2984 15.2975 17.9814 11.9995 17.9814Z" fill="#6B7280"/>
</g>
<defs>
<clipPath id="clip0_201_1738">
<rect width="24.0005" height="24" fill="white"/>
</clipPath>
</defs>
</svg>
