<svg width="16" height="16" viewBox="0 0 16 16" fill="none" xmlns="http://www.w3.org/2000/svg">
<path d="M7.2 11.2V13.6C7.2 14.9199 6.11992 16 4.8 16H2.4C1.08008 16 0 14.9199 0 13.6V11.2C0 9.88008 1.08008 8.8 2.4 8.8H4.8C6.11992 8.8 7.2 9.88008 7.2 11.2Z" fill="#00A9C3"/>
<path d="M7.2 2.4V4.8C7.2 6.11992 6.11992 7.2 4.8 7.2H2.4C1.08008 7.2 0 6.11992 0 4.8V2.4C0 1.08008 1.08008 0 2.4 0H4.8C6.11992 0 7.2 1.08008 7.2 2.4Z" fill="#00A9C3"/>
<path d="M15.9998 11.2V13.6C15.9998 14.9199 14.9197 16 13.5998 16H11.1998C9.87988 16 8.7998 14.9199 8.7998 13.6V11.2C8.7998 9.88008 9.87988 8.8 11.1998 8.8H13.5998C14.9197 8.8 15.9998 9.88008 15.9998 11.2Z" fill="#00A9C3"/>
<path d="M15.9998 2.4V4.8C15.9998 6.11992 14.9197 7.2 13.5998 7.2H11.1998C9.87988 7.2 8.7998 6.11992 8.7998 4.8V2.4C8.7998 1.08008 9.87988 0 11.1998 0H13.5998C14.9197 0 15.9998 1.08008 15.9998 2.4Z" fill="#00A9C3"/>
</svg>
