<svg width="25" height="24" viewBox="0 0 25 24" fill="none" xmlns="http://www.w3.org/2000/svg">
<g clip-path="url(#clip0_37_13577)">
<path d="M20.4872 3.51471C15.8009 -1.17157 8.20268 -1.17157 3.5163 3.51471C-1.17015 8.20098 -1.17015 15.799 3.5163 20.4853C8.20268 25.1715 15.8009 25.1715 20.4872 20.4853C25.1736 15.799 25.1736 8.20098 20.4872 3.51471ZM5.47975 20.3815C4.77362 19.8558 4.14555 19.2279 3.61994 18.5218C5.20567 17.3418 6.79181 16.1623 8.37768 14.9826C8.5955 15.2753 8.7263 15.4061 9.01892 15.6237C7.83917 17.2097 6.65943 18.7955 5.47975 20.3815ZM14.4396 14.4377C13.0932 15.784 10.9102 15.784 9.56398 14.4377C8.21765 13.0914 8.21765 10.9086 9.56398 9.56225C10.9103 8.21594 13.0932 8.21594 14.4396 9.56225C15.7858 10.9085 15.7859 13.0913 14.4396 14.4377ZM15.6257 9.01734C15.4079 8.72458 15.2771 8.59372 14.9845 8.37625C16.1642 6.79035 17.3441 5.20451 18.5237 3.61847C19.2299 4.14407 19.8579 4.772 20.3835 5.47817C18.7978 6.65817 17.2116 7.83755 15.6257 9.01734Z" fill="#6B7280"/>
</g>
<defs>
<clipPath id="clip0_37_13577">
<rect width="24.0005" height="24" fill="white" transform="translate(0.00146484)"/>
</clipPath>
</defs>
</svg>
