<svg width="25" height="24" viewBox="0 0 25 24" fill="none" xmlns="http://www.w3.org/2000/svg">
<g clip-path="url(#clip0_37_13583)">
<path d="M21.8567 6.86265C18.6866 1.65458 13.9112 5.2779 13.9112 5.2779C13.6015 5.51196 13.0305 5.70441 12.6424 5.7053L11.3633 5.7062C10.9753 5.70664 10.4042 5.5142 10.0949 5.28013C10.0949 5.28013 5.31909 1.65592 2.14862 6.86399C-1.02096 12.0703 0.256359 17.7402 0.256359 17.7402C0.480136 19.1285 1.21771 20.0549 2.6096 19.9385C3.99746 19.8226 7.00995 16.1998 7.00995 16.1998C7.25879 15.9012 7.78019 15.6573 8.16733 15.6573L15.8357 15.656C16.2233 15.656 16.7443 15.8999 16.9926 16.1984C16.9926 16.1984 20.0056 19.8213 21.3957 19.9372C22.7858 20.0536 23.5252 19.1263 23.7476 17.7389C23.7476 17.7389 25.0267 12.0698 21.8567 6.86265ZM9.12062 11.1018H7.4763V12.6865C7.4763 12.6865 7.12811 12.9524 6.58925 12.9457C6.05129 12.9376 5.80782 12.6557 5.80782 12.6557V11.1022H4.25481C4.25481 11.1022 4.06102 10.9035 4.0091 10.3803C3.95808 9.85717 4.22348 9.43424 4.22348 9.43424H5.86824V7.78996C5.86824 7.78996 6.20659 7.6087 6.69308 7.62258C7.18002 7.6378 7.53672 7.82084 7.53672 7.82084L7.53001 9.43379H9.08302C9.08302 9.43379 9.35424 9.78198 9.37662 10.2027C9.399 10.6238 9.12062 11.1018 9.12062 11.1018ZM16.6628 12.9081C15.9427 12.9081 15.3622 12.3258 15.3622 11.6066C15.3622 10.8861 15.9427 10.3052 16.6628 10.3052C17.3798 10.3052 17.9647 10.8861 17.9647 11.6066C17.9647 12.3263 17.3798 12.9081 16.6628 12.9081ZM16.6628 9.32727C15.9427 9.32727 15.3622 8.74547 15.3622 8.02626C15.3622 7.30572 15.9427 6.72481 16.6628 6.72481C17.3798 6.72481 17.9647 7.30572 17.9647 8.02626C17.9647 8.74591 17.3798 9.32727 16.6628 9.32727ZM19.904 11.2495C19.1839 11.2495 18.6034 10.6677 18.6034 9.94802C18.6034 9.22792 19.1839 8.64656 19.904 8.64656C20.621 8.64656 21.2059 9.22792 21.2059 9.94802C21.2059 10.6677 20.621 11.2495 19.904 11.2495Z" fill="#6B7280"/>
</g>
<defs>
<clipPath id="clip0_37_13583">
<rect width="24.0005" height="24" fill="white" transform="translate(0.00195312)"/>
</clipPath>
</defs>
</svg>
