<svg width="25" height="24" viewBox="0 0 25 24" fill="none" xmlns="http://www.w3.org/2000/svg">
<g clip-path="url(#clip0_37_14554)">
<path d="M3.42473 5.77321C3.5592 5.25352 3.96624 4.84649 4.48959 4.70838C3.96988 4.57392 3.56283 4.16688 3.42473 3.64355C3.29026 4.16325 2.88321 4.57028 2.35986 4.70838C2.87957 4.84649 3.28662 5.25352 3.42473 5.77321Z" fill="#6B7280"/>
<path d="M17.6888 6.39992C17.6888 3.2581 15.1433 0.712646 12.0014 0.712646C8.85948 0.712646 6.31396 3.2581 6.31396 6.39992C6.31396 9.54174 17.6888 9.54174 17.6888 6.39992ZM12.8087 2.23265C12.8632 2.03992 13.0632 1.92719 13.2596 1.98174C14.7614 2.40719 15.9687 3.60356 16.4124 5.0981C16.4706 5.29083 16.3578 5.49446 16.1687 5.54901C16.136 5.55992 16.0996 5.56356 16.0669 5.56356C15.9105 5.56356 15.7651 5.46174 15.7178 5.30174C15.3433 4.04356 14.3287 3.03628 13.0668 2.67628C12.8632 2.62537 12.7541 2.42537 12.8087 2.23265Z" fill="#6B7280"/>
<path d="M16.9247 16.458C16.6958 16.5271 16.4595 16.5888 16.2124 16.6434L18.84 23.0541C18.8982 23.1959 19.0327 23.2795 19.1744 23.2795C19.2216 23.2795 19.2689 23.2722 19.3125 23.2504C19.4978 23.1741 19.5887 22.9633 19.5124 22.7779L16.9247 16.458Z" fill="#6B7280"/>
<path d="M4.49099 22.7777C4.41467 22.9631 4.50189 23.1739 4.68724 23.2502C4.73085 23.272 4.7781 23.2792 4.82535 23.2792C4.96709 23.2792 5.10519 23.1957 5.15971 23.0539L7.79097 16.6431C7.54384 16.5886 7.3076 16.5268 7.07864 16.4614L4.49099 22.7777Z" fill="#6B7280"/>
<path d="M11.6367 17.0759V21.9894C11.6367 22.1893 11.8003 22.3528 12.0002 22.3528C12.2 22.3528 12.3636 22.1893 12.3636 21.9894V17.0759C12.2437 17.0796 12.1201 17.0796 12.0002 17.0796C11.8802 17.0796 11.7567 17.0796 11.6367 17.0759Z" fill="#6B7280"/>
<path d="M21.2484 15.7772C21.6498 15.7772 21.9752 15.4518 21.9752 15.0503C21.9752 14.6489 21.6498 14.3235 21.2484 14.3235C20.8469 14.3235 20.5215 14.6489 20.5215 15.0503C20.5215 15.4518 20.8469 15.7772 21.2484 15.7772Z" fill="#6B7280"/>
<path d="M19.4015 3.16285H19.8558V3.61713C19.8558 3.76613 19.9793 3.8897 20.1284 3.8897C20.2774 3.8897 20.4009 3.76613 20.4009 3.61713V3.16285H20.8552C21.0042 3.16285 21.1278 3.03929 21.1278 2.89028C21.1278 2.74128 21.0079 2.61772 20.8552 2.61772H20.4009V2.16344C20.4009 2.01443 20.2774 1.89087 20.1284 1.89087C19.9793 1.89087 19.8558 2.01443 19.8558 2.16344V2.61772H19.4015C19.2525 2.61772 19.1289 2.74128 19.1289 2.89028C19.1289 3.03929 19.2525 3.16285 19.4015 3.16285Z" fill="#6B7280"/>
<path d="M4.85864 17.3411C5.00765 17.3411 5.13121 17.2175 5.13121 17.0685C5.13121 16.9195 5.00765 16.7959 4.85864 16.7959H4.40434V16.3417C4.40434 16.1927 4.28078 16.0691 4.13177 16.0691C3.98276 16.0691 3.85919 16.1927 3.85919 16.3417V16.7959H3.4049C3.25589 16.7959 3.13232 16.9195 3.13232 17.0685C3.13232 17.2175 3.25589 17.3411 3.4049 17.3411H3.85919V17.7954C3.85919 17.9444 3.98276 18.0679 4.13177 18.0679C4.28078 18.0679 4.40434 17.9444 4.40434 17.7954V17.3411H4.85864Z" fill="#6B7280"/>
<path d="M12.0001 16.3526C15.8729 16.3526 19.0148 15.3271 19.0148 14.0616V13.7344C16.9529 14.2471 14.4728 14.5089 12.0001 14.5089C9.52727 14.5089 7.04722 14.2471 4.98535 13.738V14.0653C4.98535 15.3271 8.12724 16.3526 12.0001 16.3526Z" fill="#6B7280"/>
<path d="M16.3634 10.6033C16.0545 10.6033 15.8037 10.854 15.8037 11.1629C15.8037 11.4719 16.0545 11.7226 16.3634 11.7226C16.6723 11.7226 16.9267 11.4719 16.9267 11.1629C16.9267 10.854 16.6723 10.6033 16.3634 10.6033Z" fill="#6B7280"/>
<path d="M7.63733 10.6035C7.32841 10.6035 7.07764 10.8543 7.07764 11.1632C7.07764 11.4721 7.32841 11.7229 7.63733 11.7229C7.94625 11.7229 8.20065 11.4721 8.20065 11.1632C8.20065 10.8543 7.94625 10.6035 7.63733 10.6035Z" fill="#6B7280"/>
<path d="M12.0011 10.9854C11.6922 10.9854 11.4414 11.2361 11.4414 11.545C11.4414 11.8539 11.6922 12.1083 12.0011 12.1083C12.31 12.1083 12.5644 11.8576 12.5644 11.5487C12.5644 11.2397 12.31 10.9854 12.0011 10.9854Z" fill="#6B7280"/>
<path d="M18.3035 7.05078C17.7034 8.82896 14.6561 9.48351 12.0015 9.48351C9.34689 9.48351 6.30319 8.82896 5.70317 7.05442C2.69947 7.7126 0.728516 8.8326 0.728516 10.1017C0.728516 12.1308 5.7759 13.7817 12.0015 13.7817C18.2271 13.7817 23.2745 12.1344 23.2745 10.1017C23.2745 8.8326 21.2999 7.7126 18.3035 7.05078ZM7.63776 12.4544C6.92502 12.4544 6.35046 11.8762 6.35046 11.1671C6.35046 10.4581 6.92866 9.87987 7.63776 9.87987C8.34687 9.87987 8.9287 10.4581 8.9287 11.1671C8.9287 11.8762 8.35051 12.4544 7.63776 12.4544ZM12.0015 12.8362C11.2888 12.8362 10.7142 12.2581 10.7142 11.549C10.7142 10.8399 11.2924 10.2617 12.0015 10.2617C12.7106 10.2617 13.2924 10.8399 13.2924 11.549C13.2924 12.2581 12.7106 12.8362 12.0015 12.8362ZM16.3652 12.4544C15.6525 12.4544 15.0779 11.8762 15.0779 11.1671C15.0779 10.4581 15.6561 9.87987 16.3652 9.87987C17.0743 9.87987 17.6562 10.4581 17.6562 11.1671C17.6562 11.8762 17.0743 12.4544 16.3652 12.4544Z" fill="#6B7280"/>
</g>
<defs>
<clipPath id="clip0_37_14554">
<rect width="24.0005" height="24" fill="white" transform="translate(0.00146484)"/>
</clipPath>
</defs>
</svg>
