<svg width="24" height="24" viewBox="0 0 24 24" fill="none" xmlns="http://www.w3.org/2000/svg">
<path d="M10.7983 20.7969V15.5056C9.7525 15.968 8.68643 16.3841 7.6001 16.7541V20.7969H10.7983Z" fill="#6B7280"/>
<path d="M2 18.2707V20.7981H5.19822V17.494C4.53819 17.6747 3.87456 17.8438 3.20413 17.9909C3.12418 18.0081 2.99425 18.0393 2.83634 18.0768C2.5329 18.1496 2.24946 18.2164 2 18.2707Z" fill="#6B7280"/>
<path d="M16.4003 20.8V12.4696C15.3629 13.1443 14.2962 13.7696 13.2002 14.3456V20.8H16.4003Z" fill="#6B7280"/>
<path d="M18.8003 10.7776V20.8H22.0004V8.64359L21.7016 8.34439C20.7725 9.20412 19.8054 10.0152 18.8003 10.7776Z" fill="#6B7280"/>
<path d="M22.8003 21.6004H1.19981C0.978895 21.6004 0.799805 21.7795 0.799805 22.0004V22.8004C0.799805 23.0213 0.978895 23.2004 1.19981 23.2004H22.8003C23.0212 23.2004 23.2003 23.0213 23.2003 22.8004V22.0004C23.2003 21.7795 23.0212 21.6004 22.8003 21.6004Z" fill="#6B7280"/>
<path d="M6.39944 11.9995C7.50704 11.9995 8.58977 11.6711 9.51071 11.0558C10.4316 10.4404 11.1494 9.56583 11.5733 8.54256C11.9971 7.51929 12.108 6.39332 11.892 5.30703C11.6759 4.22073 11.1425 3.22291 10.3593 2.43973C9.57614 1.65656 8.57829 1.12321 7.49197 0.907135C6.40566 0.691058 5.27966 0.801956 4.25637 1.22581C3.23308 1.64966 2.35846 2.36742 1.74311 3.28834C1.12776 4.20925 0.799316 5.29196 0.799316 6.39953C0.800905 7.88426 1.39143 9.30772 2.44131 10.3576C3.49119 11.4074 4.91468 11.9979 6.39944 11.9995ZM6.79945 10.7995C6.79945 10.9056 6.75731 11.0074 6.68229 11.0824C6.60728 11.1574 6.50553 11.1995 6.39944 11.1995C6.29335 11.1995 6.19161 11.1574 6.11659 11.0824C6.04158 11.0074 5.99943 10.9056 5.99943 10.7995V10.3995C5.99943 10.2934 6.04158 10.1917 6.11659 10.1167C6.19161 10.0417 6.29335 9.99953 6.39944 9.99953C6.50553 9.99953 6.60728 10.0417 6.68229 10.1167C6.75731 10.1917 6.79945 10.2934 6.79945 10.3995V10.7995ZM10.3995 5.99953H10.7995C10.9056 5.99953 11.0074 6.04168 11.0824 6.11669C11.1574 6.19171 11.1996 6.29345 11.1996 6.39953C11.1996 6.50562 11.1574 6.60736 11.0824 6.68238C11.0074 6.75739 10.9056 6.79953 10.7995 6.79953H10.3995C10.2934 6.79953 10.1917 6.75739 10.1167 6.68238C10.0417 6.60736 9.99952 6.50562 9.99952 6.39953C9.99952 6.29345 10.0417 6.19171 10.1167 6.11669C10.1917 6.04168 10.2934 5.99953 10.3995 5.99953ZM8.9451 3.28873L9.22791 3.00593C9.30335 2.93307 9.40439 2.89275 9.50927 2.89366C9.61416 2.89457 9.71448 2.93664 9.78865 3.01081C9.86281 3.08497 9.90488 3.18529 9.90579 3.29017C9.9067 3.39505 9.86639 3.49609 9.79352 3.57153L9.51071 3.85433C9.47381 3.89254 9.42968 3.92301 9.38087 3.94397C9.33207 3.96494 9.27958 3.97597 9.22647 3.97643C9.17336 3.97689 9.12068 3.96677 9.07152 3.94666C9.02236 3.92655 8.9777 3.89685 8.94014 3.85929C8.90258 3.82173 8.87288 3.77707 8.85277 3.72791C8.83266 3.67876 8.82254 3.62608 8.823 3.57297C8.82346 3.51986 8.83449 3.46737 8.85546 3.41857C8.87642 3.36977 8.9069 3.32563 8.9451 3.28873ZM8.9451 8.94553C9.02011 8.87054 9.12184 8.82842 9.22791 8.82842C9.33398 8.82842 9.4357 8.87054 9.51071 8.94553L9.79352 9.22833C9.83173 9.26523 9.8622 9.30937 9.88316 9.35817C9.90413 9.40697 9.91516 9.45946 9.91562 9.51257C9.91608 9.56568 9.90596 9.61836 9.88585 9.66751C9.86574 9.71667 9.83604 9.76133 9.79848 9.79889C9.76092 9.83645 9.71626 9.86615 9.6671 9.88626C9.61794 9.90637 9.56527 9.91649 9.51215 9.91603C9.45904 9.91557 9.40655 9.90454 9.35775 9.88357C9.30895 9.86261 9.26481 9.83214 9.22791 9.79393L8.9451 9.51113C8.87011 9.43612 8.82798 9.3344 8.82798 9.22833C8.82798 9.12227 8.87011 9.02054 8.9451 8.94553ZM5.99943 1.99953C5.99943 1.89345 6.04158 1.7917 6.11659 1.71669C6.19161 1.64168 6.29335 1.59953 6.39944 1.59953C6.50553 1.59953 6.60728 1.64168 6.68229 1.71669C6.75731 1.7917 6.79945 1.89345 6.79945 1.99953V2.39953C6.79945 2.50562 6.75731 2.60736 6.68229 2.68238C6.60728 2.75739 6.50553 2.79953 6.39944 2.79953C6.29335 2.79953 6.19161 2.75739 6.11659 2.68238C6.04158 2.60736 5.99943 2.50562 5.99943 2.39953V1.99953ZM5.99943 5.27313V3.99953C5.99943 3.89345 6.04158 3.7917 6.11659 3.71669C6.19161 3.64168 6.29335 3.59953 6.39944 3.59953C6.50553 3.59953 6.60728 3.64168 6.68229 3.71669C6.75731 3.7917 6.79945 3.89345 6.79945 3.99953V5.27313C6.96675 5.33289 7.1187 5.42905 7.24432 5.55467C7.36994 5.68029 7.46611 5.83223 7.52587 5.99953H7.99948C8.10557 5.99953 8.20731 6.04168 8.28233 6.11669C8.35735 6.19171 8.39949 6.29345 8.39949 6.39953C8.39949 6.50562 8.35735 6.60736 8.28233 6.68238C8.20731 6.75739 8.10557 6.79953 7.99948 6.79953H7.52587C7.45882 6.99057 7.34442 7.16148 7.19337 7.29629C7.04232 7.4311 6.85954 7.5254 6.66214 7.57037C6.46473 7.61534 6.25915 7.60952 6.0646 7.55345C5.87006 7.49737 5.69292 7.39288 5.54973 7.24974C5.40655 7.1066 5.30201 6.92949 5.24589 6.73496C5.18976 6.54044 5.18388 6.33486 5.22881 6.13745C5.27373 5.94003 5.36798 5.75724 5.50275 5.60615C5.63753 5.45507 5.80841 5.34063 5.99943 5.27353V5.27313ZM3.00537 3.00593C3.08038 2.93094 3.1821 2.88882 3.28817 2.88882C3.39424 2.88882 3.49597 2.93094 3.57098 3.00593L3.85379 3.28873C3.89199 3.32563 3.92246 3.36977 3.94343 3.41857C3.96439 3.46737 3.97543 3.51986 3.97589 3.57297C3.97635 3.62608 3.96623 3.67876 3.94612 3.72791C3.926 3.77707 3.8963 3.82173 3.85874 3.85929C3.82119 3.89685 3.77652 3.92655 3.72736 3.94666C3.6782 3.96677 3.62553 3.97689 3.57242 3.97643C3.51931 3.97597 3.46682 3.96494 3.41801 3.94397C3.36921 3.92301 3.32507 3.89254 3.28817 3.85433L3.00537 3.57153C2.93038 3.49652 2.88825 3.3948 2.88825 3.28873C2.88825 3.18267 2.93038 3.08094 3.00537 3.00593ZM3.00537 9.22833L3.28817 8.94553C3.36362 8.87267 3.46466 8.83235 3.56954 8.83326C3.67442 8.83417 3.77475 8.87624 3.84891 8.95041C3.92308 9.02457 3.96515 9.12489 3.96606 9.22977C3.96697 9.33465 3.92665 9.43569 3.85379 9.51113L3.57098 9.79393C3.53408 9.83214 3.48994 9.86261 3.44114 9.88357C3.39234 9.90454 3.33985 9.91557 3.28673 9.91603C3.23362 9.91649 3.18095 9.90637 3.13179 9.88626C3.08263 9.86615 3.03797 9.83645 3.00041 9.79889C2.96285 9.76133 2.93315 9.71667 2.91304 9.66751C2.89292 9.61836 2.8828 9.56568 2.88326 9.51257C2.88373 9.45946 2.89476 9.40697 2.91572 9.35817C2.93669 9.30937 2.96716 9.26523 3.00537 9.22833ZM1.99934 6.79953C1.89325 6.79953 1.79151 6.75739 1.71649 6.68238C1.64148 6.60736 1.59933 6.50562 1.59933 6.39953C1.59933 6.29345 1.64148 6.19171 1.71649 6.11669C1.79151 6.04168 1.89325 5.99953 1.99934 5.99953H2.39935C2.50544 5.99953 2.60719 6.04168 2.6822 6.11669C2.75722 6.19171 2.79936 6.29345 2.79936 6.39953C2.79936 6.50562 2.75722 6.60736 2.6822 6.68238C2.60719 6.75739 2.50544 6.79953 2.39935 6.79953H1.99934Z" fill="#6B7280"/>
<path d="M20.8663 6.37758C20.9042 6.41547 20.9342 6.4606 20.9544 6.51029C20.9745 6.55998 20.9845 6.61322 20.9837 6.66685C20.9829 6.72047 20.9713 6.77339 20.9496 6.82244C20.9279 6.87149 20.8966 6.91568 20.8575 6.95238C15.8239 11.6772 9.60517 14.9512 2.86107 16.4272L1.11343 16.8108C1.06243 16.8214 1.01405 16.8421 0.971129 16.8716C0.928205 16.9012 0.891592 16.939 0.863425 16.9828C0.824327 17.0432 0.802275 17.1131 0.799594 17.1851C0.796913 17.257 0.813704 17.3284 0.848194 17.3916C0.882685 17.4548 0.933596 17.5075 0.995557 17.5442C1.05752 17.5809 1.12823 17.6001 1.20023 17.6C1.6889 17.525 2.17331 17.4244 2.65147 17.2988C2.81707 17.2588 2.95427 17.2268 3.03547 17.2092C9.93596 15.6987 16.2964 12.3418 21.4371 7.49718C21.5128 7.42585 21.6134 7.38682 21.7174 7.38839C21.8214 7.38996 21.9208 7.432 21.9943 7.50558L22.5019 7.96678C22.5419 8.00313 22.5912 8.02755 22.6444 8.03728C22.6975 8.04702 22.7523 8.04167 22.8026 8.02185C22.8528 8.00203 22.8965 7.96853 22.9287 7.92515C22.9609 7.88176 22.9803 7.83023 22.9847 7.77638L23.1675 5.54478C23.1709 5.50295 23.1652 5.46089 23.1507 5.4215C23.1362 5.38211 23.1133 5.34634 23.0837 5.31666C23.054 5.28699 23.0182 5.26412 22.9788 5.24963C22.9394 5.23515 22.8974 5.2294 22.8555 5.23278L20.6239 5.41518C20.5701 5.41957 20.5187 5.4389 20.4753 5.47099C20.4319 5.50308 20.3984 5.54666 20.3785 5.59679C20.3587 5.64693 20.3532 5.70163 20.3627 5.75471C20.3723 5.80779 20.3965 5.85714 20.4327 5.89718L20.8663 6.37758Z" fill="#6B7280"/>
<path d="M6.39978 6.79993C6.62057 6.79993 6.79956 6.62095 6.79956 6.40016C6.79956 6.17938 6.62057 6.0004 6.39978 6.0004C6.17899 6.0004 6 6.17938 6 6.40016C6 6.62095 6.17899 6.79993 6.39978 6.79993Z" fill="#6B7280"/>
</svg>
