<svg width="24" height="24" viewBox="0 0 24 24" fill="none" xmlns="http://www.w3.org/2000/svg">
<g clip-path="url(#clip0_201_851)">
<path d="M22.5943 1.17117H1.40628C0.630952 1.17117 0 1.80211 0 2.57742V16.5462C0 17.3215 0.630952 17.9524 1.40628 17.9524H22.5943C23.3696 17.9524 24.0005 17.3215 24.0005 16.5462V2.57742C24.0005 1.80211 23.3696 1.17117 22.5943 1.17117Z" fill="#6B7280"/>
<path d="M19.5004 21.4219H15.7034V19.3594H8.29698V21.4219H4.50002C4.11188 21.4219 3.79688 21.7369 3.79688 22.125C3.79688 22.5131 4.11188 22.8281 4.50002 22.8281H19.5004C19.8885 22.8281 20.2035 22.5131 20.2035 22.125C20.2035 21.7369 19.8885 21.4219 19.5004 21.4219Z" fill="#6B7280"/>
</g>
<defs>
<clipPath id="clip0_201_851">
<rect width="24.0005" height="24" fill="white"/>
</clipPath>
</defs>
</svg>
