<svg width="17" height="17" viewBox="0 0 17 17" fill="none" xmlns="http://www.w3.org/2000/svg">
<path d="M4.50016 12.5H3.16683C2.81321 12.5 2.47407 12.3595 2.22402 12.1095C1.97397 11.8594 1.8335 11.5203 1.8335 11.1667V7.83333C1.8335 7.47971 1.97397 7.14057 2.22402 6.89052C2.47407 6.64048 2.81321 6.5 3.16683 6.5H13.8335C14.1871 6.5 14.5263 6.64048 14.7763 6.89052C15.0264 7.14057 15.1668 7.47971 15.1668 7.83333V11.1667C15.1668 11.5203 15.0264 11.8594 14.7763 12.1095C14.5263 12.3595 14.1871 12.5 13.8335 12.5H12.5002" stroke="white" stroke-width="1.5" stroke-linecap="round" stroke-linejoin="round"/>
<path d="M12.5 9.83337H4.5V15.1667H12.5V9.83337Z" stroke="white" stroke-width="1.5" stroke-linecap="round" stroke-linejoin="round"/>
<path d="M4.5 6.50004V1.83337H12.5V6.50004" stroke="white" stroke-width="1.5" stroke-linecap="round" stroke-linejoin="round"/>
</svg>
