<svg width="25" height="24" viewBox="0 0 25 24" fill="none" xmlns="http://www.w3.org/2000/svg">
<path d="M6.3335 18H4.3335C3.80306 18 3.29436 17.7893 2.91928 17.4142C2.54421 17.0391 2.3335 16.5304 2.3335 16V11C2.3335 10.4696 2.54421 9.96086 2.91928 9.58579C3.29436 9.21071 3.80306 9 4.3335 9H20.3335C20.8639 9 21.3726 9.21071 21.7477 9.58579C22.1228 9.96086 22.3335 10.4696 22.3335 11V16C22.3335 16.5304 22.1228 17.0391 21.7477 17.4142C21.3726 17.7893 20.8639 18 20.3335 18H18.3335" stroke="white" stroke-width="2" stroke-linecap="round" stroke-linejoin="round"/>
<path d="M18.3335 14H6.3335V22H18.3335V14Z" stroke="white" stroke-width="2" stroke-linecap="round" stroke-linejoin="round"/>
<path d="M6.3335 9V2H18.3335V9" stroke="white" stroke-width="2" stroke-linecap="round" stroke-linejoin="round"/>
</svg>
