<svg width="26" height="16" viewBox="0 0 26 16" fill="none" xmlns="http://www.w3.org/2000/svg">
<path d="M9.44531 1.71106H16.4453V14.2888H9.44531V1.71106Z" fill="#FF5F00"/>
<path d="M9.88892 7.99999C9.88892 5.44448 11.0889 3.17777 12.9333 1.71107C11.5778 0.644421 9.86675 0 8.00009 0C3.57772 0 0 3.57772 0 7.99999C0 12.4222 3.57772 16 7.99999 16C9.86665 16 11.5777 15.3556 12.9333 14.2888C11.0889 12.8444 9.88892 10.5555 9.88892 7.99999V7.99999Z" fill="#EB001B"/>
<path d="M25.8888 7.99999C25.8888 12.4222 22.3111 16 17.8888 16C16.0222 16 14.3111 15.3556 12.9556 14.2888C14.8222 12.8222 16 10.5555 16 7.99999C16 5.44448 14.8 3.17777 12.9556 1.71107C14.311 0.644421 16.0222 0 17.8888 0C22.3111 0 25.8889 3.59999 25.8889 7.99999H25.8888Z" fill="#F79E1B"/>
</svg>
