<svg width="27" height="16" viewBox="0 0 27 16" fill="none" xmlns="http://www.w3.org/2000/svg">
<path d="M9.94531 1.71106H16.9453V14.2888H9.94531V1.71106Z" fill="#FF5F00"/>
<path d="M10.3889 7.99999C10.3889 5.44448 11.5889 3.17777 13.4333 1.71107C12.0778 0.644421 10.3667 0 8.50009 0C4.07772 0 0.5 3.57772 0.5 7.99999C0.5 12.4222 4.07772 16 8.49999 16C10.3666 16 12.0777 15.3556 13.4333 14.2888C11.5889 12.8444 10.3889 10.5555 10.3889 7.99999V7.99999Z" fill="#EB001B"/>
<path d="M26.3888 7.99999C26.3888 12.4222 22.8111 16 18.3888 16C16.5222 16 14.8111 15.3556 13.4556 14.2888C15.3222 12.8222 16.5 10.5555 16.5 7.99999C16.5 5.44448 15.3 3.17777 13.4556 1.71107C14.811 0.644421 16.5222 0 18.3888 0C22.8111 0 26.3889 3.59999 26.3889 7.99999H26.3888Z" fill="#F79E1B"/>
</svg>
