<svg width="16" height="16" viewBox="0 0 16 16" fill="none" xmlns="http://www.w3.org/2000/svg">
<path d="M9.57319 4.102C9.51035 4.03681 9.42372 4 9.33319 4H6.66654C6.576 4 6.48938 4.03681 6.42654 4.102C5.93919 4.60666 1.6665 9.08934 1.6665 11C1.6665 13.7573 4.50785 16 7.99985 16C11.4918 16 14.3332 13.7573 14.3332 11C14.3332 9.08934 10.0605 4.60666 9.57319 4.102Z" fill="#4CAF50"/>
<path d="M12.2497 0.446C11.6944 -0.182 10.2497 0.642 9.42037 1.2C9.04037 0.66 8.47772 0 7.99972 0C7.52172 0 6.95906 0.66 6.57906 1.2C5.75172 0.641344 4.30437 -0.182656 3.74972 0.446C3.59597 0.623281 3.52344 0.856813 3.54972 1.09C3.65706 2.32466 6.17037 4.36534 6.45637 4.59334C6.51591 4.64112 6.59003 4.667 6.66637 4.66669H9.33303C9.40859 4.66675 9.48194 4.64113 9.54103 4.59403C9.82703 4.36538 12.341 2.32738 12.4477 1.09069C12.475 0.857531 12.4032 0.623625 12.2497 0.446Z" fill="#4CAF50"/>
<path d="M10.6667 4.66666H5.33334C5.14925 4.66666 5 4.51741 5 4.33331C5 4.14922 5.14925 4 5.33334 4H10.6667C10.8508 4 11 4.14925 11 4.33334C11 4.51744 10.8508 4.66666 10.6667 4.66666Z" fill="#388E3C"/>
<path d="M7.99988 13.3333C7.20722 13.4116 6.48522 12.8739 6.33322 12.092C6.31776 11.9079 6.45447 11.7461 6.63857 11.7306C6.82266 11.7152 6.98444 11.8519 6.99991 12.036C7.02926 12.384 7.47791 12.6666 7.99991 12.6666C8.54257 12.6666 8.99991 12.3613 8.99991 12C8.99991 11.6746 8.68391 11.4666 8.00591 11.34L7.93326 11.3266C6.85126 11.1266 6.33326 10.6846 6.33326 9.99999C6.43754 9.17837 7.17544 8.58805 7.99991 8.66665C8.79257 8.58837 9.51457 9.12612 9.66657 9.90799C9.68204 10.0921 9.54532 10.2539 9.36122 10.2693C9.17713 10.2848 9.01535 10.1481 8.99988 9.96399C8.97188 9.61599 8.52322 9.33333 7.99988 9.33333C7.45722 9.33333 6.99988 9.63868 6.99988 9.99999C6.99988 10.3253 7.31654 10.5333 7.99522 10.66L8.06857 10.674C9.14857 10.874 9.66857 11.3153 9.66857 12.0006C9.56391 12.8229 8.82488 13.4131 7.99988 13.3333Z" fill="#FAFAFA"/>
<path d="M7.99985 14C7.81575 14 7.6665 13.8508 7.6665 13.6667V8.33334C7.6665 8.14925 7.81575 8 7.99985 8C8.18394 8 8.33319 8.14925 8.33319 8.33334V13.6667C8.33319 13.8508 8.18394 14 7.99985 14Z" fill="#FAFAFA"/>
</svg>
